<?xml version="1.0" encoding="UTF-8"?>
<svg width="100" height="100" viewBox="0 0 100 100" xmlns="http://www.w3.org/2000/svg">
  <rect width="100" height="100" rx="15" fill="#4F46E5"/>
  <rect x="10" y="10" width="25" height="25" rx="3" fill="white" fill-opacity="0.8"/>
  <rect x="37.5" y="10" width="25" height="25" rx="3" fill="white" fill-opacity="0.8"/>
  <rect x="65" y="10" width="25" height="25" rx="3" fill="white" fill-opacity="0.8"/>
  <rect x="10" y="37.5" width="25" height="25" rx="3" fill="white" fill-opacity="0.8"/>
  <rect x="37.5" y="37.5" width="25" height="25" rx="3" fill="white" fill-opacity="0.8"/>
  <rect x="65" y="37.5" width="25" height="25" rx="3" fill="white" fill-opacity="0.8"/>
  <rect x="10" y="65" width="25" height="25" rx="3" fill="white" fill-opacity="0.8"/>
  <rect x="37.5" y="65" width="25" height="25" rx="3" fill="white" fill-opacity="0.8"/>
  <rect x="65" y="65" width="25" height="25" rx="3" fill="white" fill-opacity="0.8"/>
  <line x1="15" y1="15" x2="30" y2="30" stroke="#4F46E5" stroke-width="4" stroke-linecap="round"/>
  <line x1="30" y1="15" x2="15" y2="30" stroke="#4F46E5" stroke-width="4" stroke-linecap="round"/>
  <circle cx="50" cy="22.5" r="8" stroke="#4F46E5" stroke-width="4" fill="none"/>
  <line x1="70" y1="15" x2="85" y2="30" stroke="#4F46E5" stroke-width="4" stroke-linecap="round"/>
  <line x1="85" y1="15" x2="70" y2="30" stroke="#4F46E5" stroke-width="4" stroke-linecap="round"/>
</svg>